HIERARCHY
ROOT joint_Root
{
	OFFSET 0.0 0.0 0.0
	CHANNELS 6 Xposition Yposition Zposition Zrotation Xrotation Yrotation 
	JOINT Hips
	{
		OFFSET -17.1583 93.1646 452.98
		CHANNELS 6 Xposition Yposition Zposition Zrotation Xrotation Yrotation 
		JOINT Spine
		{
			OFFSET 15.7357 0.0 0.0
			CHANNELS 6 Xposition Yposition Zposition Zrotation Xrotation Yrotation 
			JOINT Chest
			{
				OFFSET 8.98455 -0.406207 0.0
				CHANNELS 6 Xposition Yposition Zposition Zrotation Xrotation Yrotation 
				JOINT Neck
				{
					OFFSET 16.3773 0.0 0.0
					CHANNELS 6 Xposition Yposition Zposition Zrotation Xrotation Yrotation 
					JOINT Head
					{
						OFFSET 6.45672 0.0 0.0
						CHANNELS 6 Xposition Yposition Zposition Zrotation Xrotation Yrotation 
						End Site
						{
							OFFSET 0.0 0.0 0.0
						}
					}
				}
				JOINT Shoulder_L
				{
					OFFSET 12.9942 -0.242716 4.98039
					CHANNELS 6 Xposition Yposition Zposition Zrotation Xrotation Yrotation 
					JOINT UpperArm_L
					{
						OFFSET 5.34809 0.0 0.0
						CHANNELS 6 Xposition Yposition Zposition Zrotation Xrotation Yrotation 
						JOINT LowerArm_L
						{
							OFFSET 24.3286 1.87007e-05 0.0
							CHANNELS 6 Xposition Yposition Zposition Zrotation Xrotation Yrotation 
							JOINT Hand_L
							{
								OFFSET 22.2916 0.0 0.0
								CHANNELS 6 Xposition Yposition Zposition Zrotation Xrotation Yrotation 
								End Site
								{
									OFFSET 0.0 0.0 0.0
								}
							}
						}
					}
				}
				JOINT Shoulder_R
				{
					OFFSET 12.9945 -0.242716 -4.98039
					CHANNELS 6 Xposition Yposition Zposition Zrotation Xrotation Yrotation 
					JOINT UpperArm_R
					{
						OFFSET -5.34813 0.0 0.0
						CHANNELS 6 Xposition Yposition Zposition Zrotation Xrotation Yrotation 
						JOINT LowerArm_R
						{
							OFFSET -24.3289 0.000322201 0.0
							CHANNELS 6 Xposition Yposition Zposition Zrotation Xrotation Yrotation 
							JOINT Hand_R
							{
								OFFSET -22.2915 -0.000108084 0.0
								CHANNELS 6 Xposition Yposition Zposition Zrotation Xrotation Yrotation 
								End Site
								{
									OFFSET 0.0 0.0 0.0
								}
							}
						}
					}
				}
			}
		}
		JOINT UpperLeg_L
		{
			OFFSET -2.19248 -6.46944 0.0
			CHANNELS 6 Xposition Yposition Zposition Zrotation Xrotation Yrotation 
			JOINT LowerLeg_L
			{
				OFFSET 39.0811 0.0 -1.23785e-05
				CHANNELS 6 Xposition Yposition Zposition Zrotation Xrotation Yrotation 
				JOINT Foot_L
				{
					OFFSET 40.9854 0.0 -1.26872e-05
					CHANNELS 6 Xposition Yposition Zposition Zrotation Xrotation Yrotation 
					JOINT Toes_L
					{
						OFFSET 11.7543 0.0 0.0
						CHANNELS 6 Xposition Yposition Zposition Zrotation Xrotation Yrotation 
						End Site
						{
							OFFSET 0.0 0.0 0.0
						}
					}
				}
			}
		}
		JOINT UpperLeg_R
		{
			OFFSET -2.19251 6.46944 0.0
			CHANNELS 6 Xposition Yposition Zposition Zrotation Xrotation Yrotation 
			JOINT LowerLeg_R
			{
				OFFSET -39.0811 -0.00228153 -0.0401928
				CHANNELS 6 Xposition Yposition Zposition Zrotation Xrotation Yrotation 
				JOINT Foot_R
				{
					OFFSET -40.9854 0.0 0.0
					CHANNELS 6 Xposition Yposition Zposition Zrotation Xrotation Yrotation 
					JOINT Toes_R
					{
						OFFSET -11.7543 0.0 0.0
						CHANNELS 6 Xposition Yposition Zposition Zrotation Xrotation Yrotation 
						End Site
						{
							OFFSET 0.0 0.0 0.0
						}
					}
				}
			}
		}
	}
}
MOTION
Frames:	7
Frame Time:	0.0333333
0.000000 0.000000 0.000000 0.000000 0.000000 -0.000000 -2.963670 87.356400 483.594000 -94.595500 6.013980 171.832000 15.735700 0.000005 -0.000001 125.297000 86.810400 -126.951000 8.984550 -0.406207 -0.000000 -2.504300 3.832950 -3.225670 16.377300 -0.000001 -0.000001 -7.738160 3.714820 -3.335030 6.456720 -0.000001 -0.000000 -2.890630 1.504010 -0.475055 12.994200 -0.242716 4.980390 -92.860600 8.502800 -71.327600 5.348090 -0.000007 -0.000001 -58.571100 -13.365200 6.433310 24.328600 0.000019 0.000005 0.478661 9.759710 -2.821430 22.291600 -0.000001 0.000005 9.109620 4.606900 14.802700 12.994500 -0.242716 -4.980390 88.760500 4.843740 -75.628200 -5.348130 -0.000001 -0.000004 -72.200000 6.816940 -4.959350 -24.328900 0.000322 -0.000009 -1.991260 -3.063640 -33.020800 -22.291500 -0.000108 -0.000004 9.278710 5.368650 -1.938850 -2.192480 -6.469440 -0.000000 175.446000 1.707640 -38.080300 39.081100 -0.000007 -0.000012 0.593747 -0.618737 43.820700 40.985400 -0.000006 -0.000013 2.906360 8.569910 -69.433400 11.754300 -0.000000 0.000003 0.001308 0.141546 -10.836600 -2.192510 6.469440 -0.000001 170.989000 1.736760 -175.894000 -39.081100 -0.002282 -0.040193 0.108854 -0.136827 37.652300 -40.985400 0.000008 0.000006 0.520635 -2.482670 -39.497400 -11.754300 -0.000006 -0.000006 -0.123221 -0.498859 -37.521800
0.000000 0.000000 0.000000 0.000000 0.000000 -0.000000 -3.544310 86.830100 478.983000 -94.708000 6.592770 174.339000 15.735700 0.000005 -0.000001 112.860000 86.532100 -114.464000 8.984550 -0.406207 -0.000000 -1.333890 2.821120 -3.174350 16.377300 -0.000001 -0.000001 -6.976270 4.180880 -3.004980 6.456720 -0.000001 -0.000000 -2.894640 2.787610 0.149866 12.994200 -0.242716 4.980390 -93.128000 9.379740 -71.462700 5.348090 -0.000007 -0.000001 -62.937000 -7.923540 4.546860 24.328600 0.000019 0.000005 0.906870 13.329500 -3.920910 22.291600 -0.000001 0.000005 2.233100 4.640770 14.177100 12.994500 -0.242716 -4.980390 88.456000 5.867790 -75.230700 -5.348130 -0.000001 -0.000004 -72.260000 9.303620 -3.885030 -24.328900 0.000322 -0.000009 -0.563836 -1.177130 -25.378600 -22.291500 -0.000108 -0.000004 4.743150 5.344050 -1.178540 -2.192480 -6.469440 -0.000000 174.395000 1.415110 -33.879100 39.081100 -0.000007 -0.000012 0.760679 -0.705386 47.162100 40.985400 -0.000006 -0.000013 4.331810 7.943560 -74.006000 11.754300 -0.000000 0.000003 0.000392 0.160744 -10.057400 -2.192510 6.469440 -0.000001 170.781000 -0.562750 179.666000 -39.081100 -0.002282 -0.040193 0.186311 -0.163941 48.153300 -40.985400 0.000008 0.000006 0.038326 -3.969470 -27.790000 -11.754300 -0.000006 -0.000006 0.000899 0.016820 -15.891000
0.000000 0.000000 0.000000 0.000000 0.000000 -0.000000 -3.993510 86.818500 474.962000 -95.122600 7.730330 176.110000 15.735700 0.000005 -0.000001 104.186000 86.333500 -105.928000 8.984550 -0.406207 -0.000000 -0.624859 1.924260 -3.473340 16.377300 -0.000001 -0.000001 -5.874380 4.778630 -2.873270 6.456720 -0.000001 -0.000000 -2.588600 4.204460 0.841213 12.994200 -0.242716 4.980390 -93.240100 9.891630 -71.760600 5.348090 -0.000007 -0.000001 -66.611700 0.718840 2.359360 24.328600 0.000019 0.000005 2.832530 19.986900 -8.216560 22.291600 -0.000001 0.000005 -5.136010 4.846120 10.328400 12.994500 -0.242716 -4.980390 88.235000 6.483700 -74.736300 -5.348130 -0.000001 -0.000004 -72.381100 12.343700 -3.460960 -24.328900 0.000322 -0.000009 0.642980 2.156240 -16.732700 -22.291500 -0.000108 -0.000004 -0.414258 5.298320 0.150094 -2.192480 -6.469440 -0.000000 173.131000 0.453430 -29.250200 39.081100 -0.000007 -0.000012 0.835126 -0.767211 47.429800 40.985400 -0.000006 -0.000013 5.363800 7.323340 -77.074500 11.754300 -0.000000 0.000003 0.000055 0.166702 -9.815520 -2.192510 6.469440 -0.000001 170.357000 -2.436280 173.200000 -39.081100 -0.002282 -0.040193 0.230693 -0.142937 57.857000 -40.985400 0.000008 0.000006 -0.328372 -3.918190 -22.518300 -11.754300 -0.000006 -0.000006 0.001218 0.143744 -10.743900
0.000000 0.000000 0.000000 0.000000 0.000000 -0.000000 -4.156840 87.668200 470.895000 -94.956900 9.021070 177.759000 15.735700 0.000005 -0.000001 96.778500 86.142700 -98.396000 8.984550 -0.406207 -0.000000 -0.088719 1.021170 -3.232440 16.377300 -0.000001 -0.000001 -4.458930 5.559560 -3.322220 6.456720 -0.000001 -0.000000 -1.820580 5.567670 1.278840 12.994200 -0.242716 4.980390 -93.325900 10.169200 -71.781000 5.348090 -0.000007 -0.000001 -68.515700 9.007910 0.549835 24.328600 0.000019 0.000005 8.238840 28.143900 -17.047100 22.291600 -0.000001 0.000005 -9.407920 5.122020 4.573400 12.994500 -0.242716 -4.980390 88.269500 6.307780 -74.624300 -5.348130 -0.000001 -0.000004 -72.917500 12.920400 -2.130100 -24.328900 0.000322 -0.000009 0.897494 5.377770 -9.516200 -22.291500 -0.000108 -0.000004 -4.490460 5.209580 2.499880 -2.192480 -6.469440 -0.000000 172.737000 -0.384690 -22.716800 39.081100 -0.000007 -0.000012 0.766913 -0.795563 43.952000 40.985400 -0.000006 -0.000013 5.794100 6.445990 -78.500800 11.754300 -0.000000 0.000003 -0.000029 0.168104 -9.758570 -2.192510 6.469440 -0.000001 171.046000 -4.043280 167.341000 -39.081100 -0.002282 -0.040193 0.173803 -0.076649 65.811800 -40.985400 0.000008 0.000006 -0.326803 -2.858060 -32.620100 -11.754300 -0.000006 -0.000006 0.001365 0.140178 -10.888600
0.000000 0.000000 0.000000 0.000000 0.000000 -0.000000 -3.996150 89.018800 466.934000 -93.490700 9.949470 179.091000 15.735700 0.000005 -0.000001 90.697800 85.935000 -91.689600 8.984550 -0.406207 -0.000000 0.365639 0.163011 -1.982750 16.377300 -0.000001 -0.000001 -2.813680 6.277740 -3.758050 6.456720 -0.000001 -0.000000 -0.837510 6.843340 1.025580 12.994200 -0.242716 4.980390 -93.351300 10.028700 -71.413500 5.348090 -0.000007 -0.000001 -69.306400 14.174900 -1.689740 24.328600 0.000019 0.000005 14.749700 31.522300 -26.726500 22.291600 -0.000001 0.000005 -7.392920 5.213680 2.352150 12.994500 -0.242716 -4.980390 88.508200 5.406170 -74.547900 -5.348130 -0.000001 -0.000004 -73.235200 11.199100 0.118997 -24.328900 0.000322 -0.000009 0.550784 6.920840 -4.572580 -22.291500 -0.000108 -0.000004 -5.886530 5.124720 4.540030 -2.192480 -6.469440 -0.000000 173.899000 -0.846730 -15.041200 39.081100 -0.000007 -0.000012 0.617206 -0.796066 37.789000 40.985400 -0.000006 -0.000013 5.841930 5.710690 -78.548100 11.754300 -0.000000 0.000003 0.000296 0.162487 -9.986690 -2.192510 6.469440 -0.000001 173.521000 -5.467420 162.538000 -39.081100 -0.002282 -0.040193 0.141559 -0.053546 68.853100 -40.985400 0.000008 0.000006 -2.236100 -4.564320 -41.722500 -11.754300 -0.000006 -0.000006 0.001092 0.146644 -10.626200
0.000000 0.000000 0.000000 0.000000 0.000000 -0.000000 -3.492050 90.494200 463.278000 -91.048000 9.699630 179.099000 15.735700 0.000005 -0.000001 83.088200 86.094100 -83.097200 8.984550 -0.406207 -0.000000 -0.011043 -0.939226 -0.018109 16.377300 -0.000001 -0.000001 -0.940147 6.716820 -4.083260 6.456720 -0.000001 -0.000000 0.243479 7.802600 0.728219 12.994200 -0.242716 4.980390 -93.074900 8.968040 -70.985300 5.348090 -0.000007 -0.000001 -70.284000 16.201600 -4.327030 24.328600 0.000019 0.000005 16.584000 27.722900 -32.632200 22.291600 -0.000001 0.000005 -2.604830 5.128600 4.386900 12.994500 -0.242716 -4.980390 88.860400 4.023790 -74.171400 -5.348130 -0.000001 -0.000004 -72.778900 8.244320 3.227400 -24.328900 0.000322 -0.000009 0.228563 6.617600 -1.988970 -22.291500 -0.000108 -0.000004 -4.582990 5.096240 5.196920 -2.192480 -6.469440 -0.000000 176.665000 -0.254467 -8.145460 39.081100 -0.000007 -0.000012 0.314446 -0.541065 30.164000 40.985400 -0.000006 -0.000013 3.708060 6.517180 -76.689800 11.754300 -0.000000 0.000003 0.001169 0.144834 -10.703200 -2.192510 6.469440 -0.000001 177.328000 -5.345720 158.392000 -39.081100 -0.002282 -0.040193 0.099828 -0.040946 67.046700 -40.985400 0.000008 0.000006 -3.573480 -6.202810 -49.825200 -11.754300 -0.000006 -0.000006 0.000991 0.148888 -10.535200
0.000000 0.000000 0.000000 0.000000 0.000000 -0.000000 -2.934660 91.800400 459.837000 -89.038400 8.619340 178.606000 15.735700 0.000005 -0.000001 73.382500 86.287400 -72.546800 8.984550 -0.406207 -0.000000 -0.634273 -2.184280 1.658570 16.377300 -0.000001 -0.000001 0.768519 6.872720 -4.291200 6.456720 -0.000001 -0.000000 1.051770 8.529580 0.642744 12.994200 -0.242716 4.980390 -92.634400 7.627840 -70.882300 5.348090 -0.000007 -0.000001 -70.978500 16.741300 -7.402290 24.328600 0.000019 0.000005 15.527100 22.209000 -36.322400 22.291600 -0.000001 0.000005 2.091940 5.050940 6.209810 12.994500 -0.242716 -4.980390 89.203500 2.712620 -73.628300 -5.348130 -0.000001 -0.000004 -71.302800 5.354750 6.717780 -24.328900 0.000322 -0.000009 0.118420 4.397180 -1.560040 -22.291500 -0.000108 -0.000004 -2.388990 5.114510 4.783480 -2.192480 -6.469440 -0.000000 179.718000 0.317139 -2.549320 39.081100 -0.000007 -0.000012 -0.007032 0.016910 22.580200 40.985400 -0.000006 -0.000013 -3.275140 8.809630 -71.242900 11.754300 -0.000000 0.000003 0.002129 0.115625 -11.888000 -2.192510 6.469440 -0.000001 -179.324000 -4.187590 155.426000 -39.081100 -0.002282 -0.040193 0.064448 -0.034119 60.881800 -40.985400 0.000008 0.000006 -4.654200 -8.169350 -56.946500 -11.754300 -0.000006 -0.000006 0.000610 0.156681 -10.218900
